<svg width="26" height="28" viewBox="0 0 26 28" fill="none" xmlns="http://www.w3.org/2000/svg">
<g clip-path="url(#clip0_2081_580)">
<path d="M13.0033 0H12.9968C5.82888 0 0 6.15414 0 13.7216C0 16.7232 0.9165 19.5053 2.47488 21.7642L0.85475 26.8617L5.85163 25.1757C7.90725 26.613 10.3594 27.4432 13.0033 27.4432C20.1711 27.4432 26 21.2873 26 13.7216C26 6.15585 20.1711 0 13.0033 0Z" fill="#4CAF50"/>
<path d="M20.5676 19.3766C20.254 20.3114 19.0092 21.0866 18.0163 21.313C17.3371 21.4657 16.4498 21.5875 13.4631 20.2805C9.64271 18.6099 7.18246 14.5123 6.99071 14.2464C6.80709 13.9806 5.44696 12.0767 5.44696 10.1076C5.44696 8.13859 6.39434 7.17979 6.77621 6.76814C7.08984 6.43025 7.60821 6.27588 8.10546 6.27588C8.26634 6.27588 8.41096 6.28446 8.54096 6.29132C8.92284 6.30847 9.11459 6.33248 9.36646 6.96882C9.68009 7.76639 10.4438 9.73544 10.5348 9.93783C10.6275 10.1402 10.7201 10.4147 10.5901 10.6805C10.4682 10.9549 10.361 11.0767 10.1692 11.31C9.97746 11.5433 9.79546 11.7216 9.60371 11.9721C9.42821 12.1899 9.22996 12.4232 9.45096 12.8262C9.67196 13.2207 10.4357 14.5363 11.5602 15.5929C13.0113 16.9564 14.1878 17.3921 14.6087 17.5773C14.9223 17.7146 15.2961 17.682 15.5252 17.4247C15.8161 17.0937 16.1752 16.5448 16.5408 16.0045C16.8008 15.6169 17.1291 15.5688 17.4736 15.7061C17.8246 15.8347 19.682 16.8038 20.0638 17.0045C20.4457 17.2069 20.6976 17.3029 20.7902 17.4727C20.8812 17.6425 20.8812 18.4401 20.5676 19.3766Z" fill="white"/>
</g>
<defs>
<clipPath id="clip0_2081_580">
<rect width="26" height="27.4432" fill="white"/>
</clipPath>
</defs>
</svg>
