<svg width="26" height="28" viewBox="0 0 26 28" fill="none" xmlns="http://www.w3.org/2000/svg">
<g clip-path="url(#clip0_2081_583)">
<path d="M13.0004 0.00266841C5.97529 -0.143538 0.162111 5.73666 0.00170898 13.1512C0.0200392 16.9255 1.6034 20.5021 4.3346 22.9383V26.8715C4.3346 27.1872 4.57711 27.4432 4.87624 27.4432C4.97774 27.4432 5.07721 27.4131 5.16327 27.3563L8.18223 25.3657C9.72035 25.9867 11.3537 26.3033 13.0004 26.2998C20.0256 26.4461 25.8388 20.5659 25.9992 13.1513C25.8388 5.73666 20.0256 -0.143538 13.0004 0.00266841Z" fill="#2196F3"/>
<path d="M21.5575 9.37828C21.3963 9.15029 21.1009 9.08206 20.8642 9.21819L15.2315 12.4596L11.7272 9.28792C11.5124 9.09348 11.1919 9.1064 10.9917 9.31767L4.49239 16.1778C4.28151 16.4017 4.28253 16.7637 4.49472 16.9863C4.66436 17.1643 4.92449 17.2037 5.13476 17.0833L10.7675 13.8419L14.275 17.0147C14.4899 17.2092 14.8104 17.1962 15.0105 16.985L21.5099 10.1249C21.6992 9.92307 21.7196 9.60509 21.5575 9.37828Z" fill="white"/>
</g>
<defs>
<clipPath id="clip0_2081_583">
<rect width="26" height="27.4432" fill="white"/>
</clipPath>
</defs>
</svg>
