<svg width="14" height="18" viewBox="0 0 14 18" fill="none" xmlns="http://www.w3.org/2000/svg">
<path d="M1.00058 18C0.828791 17.9995 0.660036 17.9547 0.51058 17.87C0.356114 17.7832 0.227492 17.6569 0.13788 17.504C0.0482686 17.3511 0.000885124 17.1772 0.000579768 17V2.33C-0.0129385 1.73032 0.210407 1.14946 0.622213 0.713324C1.03402 0.277184 1.60111 0.0208945 2.20058 0H11.8006C12.4001 0.0208945 12.9671 0.277184 13.3789 0.713324C13.7908 1.14946 14.0141 1.73032 14.0006 2.33V17C13.9995 17.1745 13.9528 17.3457 13.8651 17.4966C13.7774 17.6475 13.6517 17.7727 13.5006 17.86C13.3486 17.9478 13.1761 17.994 13.0006 17.994C12.825 17.994 12.6526 17.9478 12.5006 17.86L6.83058 14.65L1.50058 17.85C1.35013 17.9434 1.17759 17.9951 1.00058 18Z" fill="#282828"/>
</svg>
